<?xml version="1.0" standalone="no"?>
<!DOCTYPE svg PUBLIC "-//W3C//DTD SVG 20010904//EN"
 "http://www.w3.org/TR/2001/REC-SVG-20010904/DTD/svg10.dtd">
<svg version="1.0" xmlns="http://www.w3.org/2000/svg"
 width="492.000000pt" height="628.000000pt" viewBox="0 0 492.000000 628.000000"
 preserveAspectRatio="xMidYMid meet">

<g transform="translate(0.000000,628.000000) scale(0.100000,-0.100000)"
fill="#000000" stroke="none">
<path d="M1331 5929 l-123 -63 -74 38 c-79 40 -104 41 -166 10 -29 -15 -98
-110 -127 -175 -17 -38 -18 -39 -35 -20 -28 30 -67 34 -172 16 -120 -20 -192
-47 -227 -83 -21 -22 -27 -38 -29 -84 -3 -67 1 -70 141 -156 135 -82 176 -94
304 -90 104 3 108 2 103 -17 -2 -11 -8 -37 -11 -57 -6 -31 -14 -40 -49 -56
-23 -11 -64 -42 -91 -69 -43 -42 -188 -143 -206 -143 -14 0 -18 -31 -7 -56 17
-36 60 -55 146 -65 62 -7 81 -5 123 11 27 11 58 20 68 20 38 0 111 -51 137
-96 31 -54 63 -187 64 -266 0 -31 5 -69 11 -85 6 -15 15 -84 19 -153 4 -69 18
-168 30 -220 20 -82 22 -112 17 -221 -6 -143 -2 -131 -119 -346 -54 -98 -101
-171 -133 -205 -109 -114 -174 -267 -197 -461 -8 -71 -7 -116 7 -225 27 -224
62 -432 85 -512 44 -152 182 -384 278 -467 33 -29 63 -61 66 -71 8 -23 160
-95 256 -121 41 -11 126 -30 188 -43 84 -16 110 -25 100 -33 -8 -5 -26 -27
-40 -49 l-26 -38 -16 31 c-9 17 -21 31 -26 31 -14 0 -54 -23 -62 -36 -28 -43
-106 -128 -128 -139 -14 -7 -50 -35 -79 -61 -51 -46 -52 -47 -105 -40 -35 4
-73 18 -111 41 -73 44 -117 53 -150 31 -21 -14 -25 -24 -25 -68 0 -47 3 -54
40 -85 22 -19 58 -63 81 -98 43 -64 54 -72 154 -106 22 -7 69 -16 105 -19 l65
-5 -3 -33 c-5 -44 19 -78 60 -85 18 -3 64 -13 102 -22 63 -14 70 -14 87 1 17
15 47 82 85 187 10 29 45 81 88 130 110 126 156 184 156 194 0 4 -12 21 -27
37 l-28 29 53 56 c28 30 52 64 52 75 0 21 3 21 247 18 137 -2 250 -5 252 -7 2
-2 6 -44 9 -94 4 -80 3 -91 -16 -111 -18 -20 -20 -31 -15 -94 3 -39 11 -99 19
-134 20 -89 18 -131 -10 -207 -38 -104 -101 -143 -215 -131 -98 10 -104 9
-127 -19 -27 -34 -39 -101 -23 -121 29 -35 111 -45 328 -42 l210 3 29 28 c25
24 30 26 36 12 9 -23 68 -45 123 -45 63 1 130 31 138 63 10 37 -24 302 -46
371 -11 34 -24 104 -29 156 -15 162 -34 196 -118 209 l-37 6 -3 75 c-2 41 -7
79 -13 86 -14 17 43 24 188 24 107 0 122 2 127 18 10 28 244 175 336 211 19 8
67 28 105 46 184 86 296 115 527 134 92 8 129 16 173 36 58 28 327 250 338
280 9 21 -5 48 -60 113 -51 60 -156 116 -283 151 -41 11 -92 33 -115 49 -22
15 -70 41 -107 56 -73 30 -190 122 -223 174 -11 17 -29 34 -40 38 -11 4 -40
24 -65 44 -55 46 -86 62 -170 88 -123 38 -193 76 -247 136 -108 118 -171 148
-388 185 -66 12 -136 26 -155 31 -35 11 -176 31 -349 50 -173 19 -250 74 -341
244 -52 98 -80 192 -80 271 0 33 -7 85 -15 115 -19 71 -70 393 -85 535 -8 76
-9 183 -3 345 9 250 7 352 -7 413 -7 35 -7 37 17 37 13 0 43 8 66 18 23 11 67
29 97 41 66 27 198 125 220 164 14 26 13 30 -15 83 -43 81 -120 127 -247 148
-40 7 -156 -14 -235 -43 -28 -10 -54 -17 -56 -14 -3 2 -1 22 5 45 11 52 -6
179 -32 233 -26 54 -108 133 -146 141 -24 5 -54 -6 -153 -57z m170 -466 c19
-15 70 -63 114 -107 66 -67 85 -94 108 -152 40 -99 45 -164 34 -447 -13 -326
2 -482 93 -952 5 -27 14 -93 21 -145 19 -159 31 -191 104 -279 36 -43 65 -83
65 -89 0 -19 64 -65 136 -98 63 -29 89 -35 235 -49 90 -9 200 -25 244 -35 44
-11 109 -24 145 -30 239 -39 277 -56 397 -179 76 -77 127 -105 264 -150 70
-23 110 -44 158 -81 36 -27 67 -48 69 -45 3 2 17 -12 32 -33 51 -70 168 -158
249 -187 23 -8 61 -28 84 -45 23 -16 85 -43 140 -59 103 -31 197 -72 216 -95
9 -11 -8 -15 -93 -24 -121 -12 -196 -39 -196 -72 0 -28 22 -35 57 -17 35 18
114 34 215 42 69 6 79 5 85 -11 5 -13 -6 -29 -42 -61 -47 -40 -53 -43 -110
-43 -75 0 -145 -29 -145 -60 0 -24 21 -26 80 -5 62 22 64 19 16 -25 -72 -67
-132 -87 -286 -100 -226 -18 -254 -26 -575 -162 -105 -44 -224 -110 -305 -168
-94 -67 -101 -70 -187 -70 -43 -1 -121 -8 -173 -16 -53 -9 -189 -18 -310 -21
-555 -14 -1092 79 -1237 213 -109 101 -164 173 -245 324 -75 140 -100 225
-132 451 -44 316 -48 358 -41 432 8 81 58 286 72 296 5 3 31 40 58 81 28 41
64 91 81 110 45 50 91 126 168 276 l68 130 5 145 c5 127 3 154 -17 229 -12 48
-26 139 -30 210 -4 69 -13 138 -19 153 -6 16 -11 54 -11 85 0 121 -45 272 -99
336 -11 12 -16 40 -17 85 -1 48 -9 82 -28 125 -24 52 -26 64 -17 105 8 37 7
49 -6 63 -14 16 -14 23 -1 70 l15 53 84 22 c46 12 132 34 192 49 59 14 107 30
107 34 0 5 15 11 33 13 17 2 35 5 38 5 3 1 21 -10 40 -25z m376 -4105 c46 -7
83 -16 83 -20 0 -4 -26 -34 -57 -66 -52 -52 -67 -61 -135 -80 -42 -12 -78 -22
-81 -22 -3 0 -7 12 -10 26 -5 26 32 93 75 136 10 10 18 23 18 28 0 13 6 13
107 -2z m831 -134 c1 -69 0 -134 -3 -145 -10 -31 -40 -22 -89 27 l-46 46 0 88
0 89 43 9 c23 6 53 10 67 11 l25 1 3 -126z"/>
<path d="M1252 5268 c-16 -16 -15 -47 1 -54 8 -3 26 0 41 6 20 7 27 16 24 33
-3 25 -45 36 -66 15z"/>
<path d="M1970 2660 c-19 -12 -1 -90 55 -245 46 -127 71 -174 132 -252 36 -46
104 -77 190 -89 40 -5 51 -3 66 14 18 20 19 20 100 -15 45 -20 107 -42 137
-50 30 -8 69 -18 85 -22 21 -5 38 -3 57 8 26 14 29 14 70 -17 147 -111 192
-128 248 -90 29 20 41 35 67 86 1 2 21 -8 46 -22 39 -23 54 -26 138 -26 149 1
188 25 192 122 2 26 -2 33 -17 33 -21 0 -32 -16 -40 -57 -5 -23 -14 -28 -60
-39 -91 -20 -152 -9 -224 40 -80 54 -97 52 -97 -13 0 -38 -5 -52 -24 -67 -33
-27 -52 -24 -107 16 -132 95 -150 105 -181 105 -19 0 -36 -7 -41 -16 -8 -14
-16 -13 -78 6 -38 12 -115 41 -172 66 -107 47 -149 51 -139 13 4 -13 0 -19
-12 -19 -26 0 -124 30 -140 43 -60 49 -156 262 -201 443 -11 43 -27 58 -50 44z"/>
</g>
</svg>
